<?xml version="1.0" encoding="utf-8"?>
<!-- Generator: Adobe Illustrator 22.0.1, SVG Export Plug-In . SVG Version: 6.00 Build 0)  -->
<svg version="1.1" id="Layer_1" xmlns="http://www.w3.org/2000/svg" xmlns:xlink="http://www.w3.org/1999/xlink" x="0px" y="0px"
	 viewBox="0 0 1280 800" style="enable-background:new 0 0 1280 800;" xml:space="preserve">
<style type="text/css">
	.st0{fill:#414747;}
	.st1{fill:#96C037;}
</style>
<g>
	<path class="st0" d="M402,508.5c-34.2,0-62-27.8-62-62s27.8-62,62-62c10,0,20,2.6,29.9,7.8l3.6,1.9l2.5-3.2
		c2.8-3.6,6.6-5.4,11.3-5.4c8,0,14.7,6.7,14.7,14.7v91.5c0,8-6.7,14.7-14.7,14.7c-4,0-8.1-1.8-11.2-4.8l-2.5-2.6l-3.2,1.7
		C422.4,505.9,412.5,508.5,402,508.5z M402,416.2c-17,0-30.3,13.3-30.3,30.3c0,17,13.3,30.3,30.3,30.3c17,0,30.3-13.3,30.3-30.3
		C432.3,429.5,419,416.2,402,416.2z"/>
	<path class="st0" d="M572.8,506.4c-8.7,0-16-7.2-16-15.7v-53.8c0-11.7-9.2-20.8-20.8-20.8c-11.6,0-21.1,9.4-21.1,20.8v53.8
		c0,8.7-7.1,15.7-15.7,15.7c-8.7,0-15.7-7.1-15.7-15.7v-90.2c0-8.4,6.5-15,14.7-15c3.3,0,6.7,1.2,9.6,3.4l2.4,1.8l2.7-1.3
		c7.1-3.4,15.2-5.3,23.2-5.3c29,0,52.6,23.6,52.6,52.6v53.8C588.5,499.3,581.4,506.4,572.8,506.4z"/>
	<path class="st0" d="M762.8,506.4c-8.8,0-15.7-6.9-15.7-15.7v-90.4c0-8.1,6.6-14.7,14.7-14.7c3.6,0,7,1.3,9.9,3.8l2.5,2.1l2.9-1.5
		c10.2-5.2,21.7-5.2,25.5-5.2c3.9,0.1,7.6,1.8,10.4,4.7c2.9,3.1,4.5,7.4,4.3,11.8c-0.4,8.4-7.8,15-17.2,15.2
		c-12.1,0.3-21.5,9.5-21.5,20.8v53.3C778.6,499.4,771.7,506.4,762.8,506.4z"/>
	<path class="st0" d="M878,508.5c-34.2,0-62-27.8-62-62s27.8-62,62-62c10,0,20,2.6,29.9,7.8l3.6,1.9l2.5-3.2
		c2.8-3.6,6.6-5.4,11.3-5.4c8,0,14.7,6.7,14.7,14.7v91.5c0,8-6.7,14.7-14.7,14.7c-4,0-8.1-1.8-11.2-4.8l-2.5-2.6l-3.2,1.7
		C898.4,505.9,888.5,508.5,878,508.5z M878,416.2c-17,0-30.3,13.3-30.3,30.3c0,17,13.3,30.3,30.3,30.3c17,0,30.3-13.3,30.3-30.3
		C908.2,429.5,894.9,416.2,878,416.2z"/>
	<g>
		<path class="st1" d="M624.4,506.4c-8.8,0-16-7.2-16-16v-90.4c0-8.8,7.2-16,16-16s16,7.2,16,16v90.4
			C640.5,499.2,633.3,506.4,624.4,506.4z"/>
		<path class="st1" d="M662.7,329.9c0-21.2-17.2-38.4-38.4-38.4c-26.3,0-64.9,34.4-66.5,35.8c-1.5,1.4-1.5,3.8,0,5.1
			c1.6,1.5,40.2,35.8,66.5,35.8C645.5,368.3,662.7,351.1,662.7,329.9z M608.2,329.9c0-9,7.3-16.3,16.3-16.3s16.3,7.3,16.3,16.3
			c0,9-7.3,16.3-16.3,16.3S608.2,339,608.2,329.9z"/>
	</g>
	<path class="st0" d="M711.9,474.3H708c-10.9,0-15.9-9.2-15.9-17.7v-14.8h18.5c8.8,0,15.7-6.9,15.7-15.7c0-8.8-6.9-15.7-15.7-15.7
		h-18.5v-10.1c0-8.8-7.2-16-16-16c-8.8,0-16,7.2-16,16v56.5c0,28.4,20.6,49.7,47.9,49.7h3.9c8.8,0,16-7.2,16-16
		C727.9,481.5,720.7,474.3,711.9,474.3z"/>
</g>
</svg>
